{
    "accessors" : [
        {
            "bufferView" : 0,
            "componentType" : 5126,
            "count" : 4,
            "max" : [
                1,
                0,
                1
            ],
            "min" : [
                -1,
                0,
                -1
            ],
            "type" : "VEC3"
        },
        {
            "bufferView" : 1,
            "componentType" : 5126,
            "count" : 4,
            "type" : "VEC3"
        },
        {
            "bufferView" : 2,
            "componentType" : 5126,
            "count" : 4,
            "type" : "VEC2"
        },
        {
            "bufferView" : 3,
            "componentType" : 5123,
            "count" : 6,
            "type" : "SCALAR"
        },
        {
            "bufferView" : 4,
            "componentType" : 5126,
            "count" : 24,
            "max" : [
                1,
                1,
                1
            ],
            "min" : [
                -1,
                -1,
                -1
            ],
            "type" : "VEC3"
        },
        {
            "bufferView" : 5,
            "componentType" : 5126,
            "count" : 24,
            "type" : "VEC3"
        },
        {
            "bufferView" : 6,
            "componentType" : 5126,
            "count" : 24,
            "type" : "VEC2"
        },
        {
            "bufferView" : 7,
            "componentType" : 5123,
            "count" : 36,
            "type" : "SCALAR"
        },
        {
            "bufferView" : 8,
            "componentType" : 5126,
            "count" : 24,
            "max" : [
                1,
                1,
                1
            ],
            "min" : [
                -1,
                -1,
                -1
            ],
            "type" : "VEC3"
        },
        {
            "bufferView" : 9,
            "componentType" : 5126,
            "count" : 24,
            "type" : "VEC3"
        },
        {
            "bufferView" : 10,
            "componentType" : 5126,
            "count" : 24,
            "type" : "VEC2"
        },
        {
            "bufferView" : 11,
            "componentType" : 5123,
            "count" : 36,
            "type" : "SCALAR"
        },
        {
            "bufferView" : 12,
            "componentType" : 5126,
            "count" : 1725,
            "max" : [
                82.0066909790039,
                82.0066909790039,
                82.0066909790039
            ],
            "min" : [
                -82.0066909790039,
                -82.0066909790039,
                -82.00669860839844
            ],
            "type" : "VEC3"
        },
        {
            "bufferView" : 13,
            "componentType" : 5126,
            "count" : 1725,
            "type" : "VEC3"
        },
        {
            "bufferView" : 14,
            "componentType" : 5126,
            "count" : 1725,
            "type" : "VEC2"
        },
        {
            "bufferView" : 15,
            "componentType" : 5123,
            "count" : 3501,
            "type" : "SCALAR"
        },
        {
            "bufferView" : 16,
            "componentType" : 5126,
            "count" : 100,
            "max" : [
                0.31779152154922485,
                3.388026237487793,
                4.185358047485352
            ],
            "min" : [
                -0.3177908658981323,
                -1.1190162897109985,
                -3.3155925273895264
            ],
            "type" : "VEC3"
        },
        {
            "bufferView" : 17,
            "componentType" : 5126,
            "count" : 100,
            "type" : "VEC3"
        },
        {
            "bufferView" : 18,
            "componentType" : 5126,
            "count" : 100,
            "type" : "VEC2"
        },
        {
            "bufferView" : 19,
            "componentType" : 5123,
            "count" : 180,
            "type" : "SCALAR"
        },
        {
            "bufferView" : 20,
            "componentType" : 5126,
            "count" : 100,
            "max" : [
                0.31779152154922485,
                3.388026237487793,
                4.185358047485352
            ],
            "min" : [
                -0.3177908658981323,
                -1.1190162897109985,
                -3.3155925273895264
            ],
            "type" : "VEC3"
        },
        {
            "bufferView" : 21,
            "componentType" : 5126,
            "count" : 100,
            "type" : "VEC3"
        },
        {
            "bufferView" : 22,
            "componentType" : 5126,
            "count" : 100,
            "type" : "VEC2"
        },
        {
            "bufferView" : 23,
            "componentType" : 5123,
            "count" : 180,
            "type" : "SCALAR"
        },
        {
            "bufferView" : 24,
            "componentType" : 5126,
            "count" : 100,
            "max" : [
                0.31779152154922485,
                3.388026237487793,
                4.185358047485352
            ],
            "min" : [
                -0.3177908658981323,
                -1.1190162897109985,
                -3.3155925273895264
            ],
            "type" : "VEC3"
        },
        {
            "bufferView" : 25,
            "componentType" : 5126,
            "count" : 100,
            "type" : "VEC3"
        },
        {
            "bufferView" : 26,
            "componentType" : 5126,
            "count" : 100,
            "type" : "VEC2"
        },
        {
            "bufferView" : 27,
            "componentType" : 5123,
            "count" : 180,
            "type" : "SCALAR"
        },
        {
            "bufferView" : 28,
            "componentType" : 5126,
            "count" : 168,
            "max" : [
                1,
                1,
                14.199999809265137
            ],
            "min" : [
                -1,
                -1,
                -1
            ],
            "type" : "VEC3"
        },
        {
            "bufferView" : 29,
            "componentType" : 5126,
            "count" : 168,
            "type" : "VEC3"
        },
        {
            "bufferView" : 30,
            "componentType" : 5126,
            "count" : 168,
            "type" : "VEC2"
        },
        {
            "bufferView" : 31,
            "componentType" : 5123,
            "count" : 252,
            "type" : "SCALAR"
        },
        {
            "bufferView" : 32,
            "componentType" : 5126,
            "count" : 168,
            "max" : [
                1,
                1,
                14.199999809265137
            ],
            "min" : [
                -1,
                -1,
                -1
            ],
            "type" : "VEC3"
        },
        {
            "bufferView" : 33,
            "componentType" : 5126,
            "count" : 168,
            "type" : "VEC3"
        },
        {
            "bufferView" : 34,
            "componentType" : 5126,
            "count" : 168,
            "type" : "VEC2"
        },
        {
            "bufferView" : 35,
            "componentType" : 5123,
            "count" : 252,
            "type" : "SCALAR"
        },
        {
            "bufferView" : 36,
            "componentType" : 5126,
            "count" : 168,
            "max" : [
                1,
                1,
                14.199999809265137
            ],
            "min" : [
                -1,
                -1,
                -1
            ],
            "type" : "VEC3"
        },
        {
            "bufferView" : 37,
            "componentType" : 5126,
            "count" : 168,
            "type" : "VEC3"
        },
        {
            "bufferView" : 38,
            "componentType" : 5126,
            "count" : 168,
            "type" : "VEC2"
        },
        {
            "bufferView" : 39,
            "componentType" : 5123,
            "count" : 252,
            "type" : "SCALAR"
        }
    ],
    "asset" : {
        "generator" : "Khronos Blender glTF 2.0 I/O",
        "version" : "2.0"
    },
    "bufferViews" : [
        {
            "buffer" : 0,
            "byteLength" : 48,
            "byteOffset" : 0
        },
        {
            "buffer" : 0,
            "byteLength" : 48,
            "byteOffset" : 48
        },
        {
            "buffer" : 0,
            "byteLength" : 32,
            "byteOffset" : 96
        },
        {
            "buffer" : 0,
            "byteLength" : 12,
            "byteOffset" : 128
        },
        {
            "buffer" : 0,
            "byteLength" : 288,
            "byteOffset" : 140
        },
        {
            "buffer" : 0,
            "byteLength" : 288,
            "byteOffset" : 428
        },
        {
            "buffer" : 0,
            "byteLength" : 192,
            "byteOffset" : 716
        },
        {
            "buffer" : 0,
            "byteLength" : 72,
            "byteOffset" : 908
        },
        {
            "buffer" : 0,
            "byteLength" : 288,
            "byteOffset" : 980
        },
        {
            "buffer" : 0,
            "byteLength" : 288,
            "byteOffset" : 1268
        },
        {
            "buffer" : 0,
            "byteLength" : 192,
            "byteOffset" : 1556
        },
        {
            "buffer" : 0,
            "byteLength" : 72,
            "byteOffset" : 1748
        },
        {
            "buffer" : 0,
            "byteLength" : 20700,
            "byteOffset" : 1820
        },
        {
            "buffer" : 0,
            "byteLength" : 20700,
            "byteOffset" : 22520
        },
        {
            "buffer" : 0,
            "byteLength" : 13800,
            "byteOffset" : 43220
        },
        {
            "buffer" : 0,
            "byteLength" : 7002,
            "byteOffset" : 57020
        },
        {
            "buffer" : 0,
            "byteLength" : 1200,
            "byteOffset" : 64024
        },
        {
            "buffer" : 0,
            "byteLength" : 1200,
            "byteOffset" : 65224
        },
        {
            "buffer" : 0,
            "byteLength" : 800,
            "byteOffset" : 66424
        },
        {
            "buffer" : 0,
            "byteLength" : 360,
            "byteOffset" : 67224
        },
        {
            "buffer" : 0,
            "byteLength" : 1200,
            "byteOffset" : 67584
        },
        {
            "buffer" : 0,
            "byteLength" : 1200,
            "byteOffset" : 68784
        },
        {
            "buffer" : 0,
            "byteLength" : 800,
            "byteOffset" : 69984
        },
        {
            "buffer" : 0,
            "byteLength" : 360,
            "byteOffset" : 70784
        },
        {
            "buffer" : 0,
            "byteLength" : 1200,
            "byteOffset" : 71144
        },
        {
            "buffer" : 0,
            "byteLength" : 1200,
            "byteOffset" : 72344
        },
        {
            "buffer" : 0,
            "byteLength" : 800,
            "byteOffset" : 73544
        },
        {
            "buffer" : 0,
            "byteLength" : 360,
            "byteOffset" : 74344
        },
        {
            "buffer" : 0,
            "byteLength" : 2016,
            "byteOffset" : 74704
        },
        {
            "buffer" : 0,
            "byteLength" : 2016,
            "byteOffset" : 76720
        },
        {
            "buffer" : 0,
            "byteLength" : 1344,
            "byteOffset" : 78736
        },
        {
            "buffer" : 0,
            "byteLength" : 504,
            "byteOffset" : 80080
        },
        {
            "buffer" : 0,
            "byteLength" : 2016,
            "byteOffset" : 80584
        },
        {
            "buffer" : 0,
            "byteLength" : 2016,
            "byteOffset" : 82600
        },
        {
            "buffer" : 0,
            "byteLength" : 1344,
            "byteOffset" : 84616
        },
        {
            "buffer" : 0,
            "byteLength" : 504,
            "byteOffset" : 85960
        },
        {
            "buffer" : 0,
            "byteLength" : 2016,
            "byteOffset" : 86464
        },
        {
            "buffer" : 0,
            "byteLength" : 2016,
            "byteOffset" : 88480
        },
        {
            "buffer" : 0,
            "byteLength" : 1344,
            "byteOffset" : 90496
        },
        {
            "buffer" : 0,
            "byteLength" : 504,
            "byteOffset" : 91840
        }
    ],
    "buffers" : [
        {
            "byteLength" : 92344,
            "uri" : "data:application/octet-stream;base64,"
        }
    ],
    "extensions" : {},
    "meshes" : [
        {
            "name" : "Plane.001",
            "primitives" : [
                {
                    "attributes" : {
                        "NORMAL" : 1,
                        "POSITION" : 0,
                        "TEXCOORD_0" : 2
                    },
                    "indices" : 3
                }
            ]
        },
        {
            "name" : "Cube.000",
            "primitives" : [
                {
                    "attributes" : {
                        "NORMAL" : 5,
                        "POSITION" : 4,
                        "TEXCOORD_0" : 6
                    },
                    "indices" : 7
                }
            ]
        },
        {
            "name" : "Cube.000",
            "primitives" : [
                {
                    "attributes" : {
                        "NORMAL" : 9,
                        "POSITION" : 8,
                        "TEXCOORD_0" : 10
                    },
                    "indices" : 11
                }
            ]
        },
        {
            "name" : "Cube.000",
            "primitives" : [
                {
                    "attributes" : {
                        "NORMAL" : 13,
                        "POSITION" : 12,
                        "TEXCOORD_0" : 14
                    },
                    "indices" : 15
                }
            ]
        },
        {
            "name" : "Cube.000",
            "primitives" : [
                {
                    "attributes" : {
                        "NORMAL" : 17,
                        "POSITION" : 16,
                        "TEXCOORD_0" : 18
                    },
                    "indices" : 19
                }
            ]
        },
        {
            "name" : "Cube.000",
            "primitives" : [
                {
                    "attributes" : {
                        "NORMAL" : 21,
                        "POSITION" : 20,
                        "TEXCOORD_0" : 22
                    },
                    "indices" : 23
                }
            ]
        },
        {
            "name" : "Cube.000",
            "primitives" : [
                {
                    "attributes" : {
                        "NORMAL" : 25,
                        "POSITION" : 24,
                        "TEXCOORD_0" : 26
                    },
                    "indices" : 27
                }
            ]
        },
        {
            "name" : "Cube.000",
            "primitives" : [
                {
                    "attributes" : {
                        "NORMAL" : 29,
                        "POSITION" : 28,
                        "TEXCOORD_0" : 30
                    },
                    "indices" : 31
                }
            ]
        },
        {
            "name" : "Cube.000",
            "primitives" : [
                {
                    "attributes" : {
                        "NORMAL" : 33,
                        "POSITION" : 32,
                        "TEXCOORD_0" : 34
                    },
                    "indices" : 35
                }
            ]
        },
        {
            "name" : "Cube.000",
            "primitives" : [
                {
                    "attributes" : {
                        "NORMAL" : 37,
                        "POSITION" : 36,
                        "TEXCOORD_0" : 38
                    },
                    "indices" : 39
                }
            ]
        }
    ],
    "nodes" : [
        {
            "mesh" : 0,
            "name" : "floor-col",
            "scale" : [
                147.99586486816406,
                147.99586486816406,
                147.99586486816406
            ],
            "translation" : [
                -6.752200126647949,
                -0.4023212194442749,
                -1.5263676643371582
            ]
        },
        {
            "mesh" : 1,
            "name" : "Cube_col",
            "scale" : [
                13.920343399047852,
                13.920343399047852,
                13.920343399047852
            ],
            "translation" : [
                -122.00868225097656,
                -0.4023212194442749,
                -79.50067901611328
            ]
        },
        {
            "mesh" : 2,
            "name" : "Cube.001_col",
            "scale" : [
                13.920343399047852,
                13.920343399047852,
                13.920343399047852
            ],
            "translation" : [
                95.31913757324219,
                -0.4023212194442749,
                -50.40238952636719
            ]
        },
        {
            "mesh" : 3,
            "name" : "house_col",
            "scale" : [
                0.6773213148117065,
                0.6773213148117065,
                0.6773213148117065
            ],
            "translation" : [
                -86.99982452392578,
                54.59171676635742,
                55.98821258544922
            ]
        },
        {
            "mesh" : 4,
            "name" : "Cube.002_col",
            "translation" : [
                95.31913757324219,
                2.5531206130981445,
                67.47856140136719
            ]
        },
        {
            "mesh" : 5,
            "name" : "Cube.005_col",
            "rotation" : [
                0,
                -0.4750764071941376,
                0,
                0.8799445629119873
            ],
            "translation" : [
                68.08380126953125,
                2.5531206130981445,
                45.791160583496094
            ]
        },
        {
            "mesh" : 6,
            "name" : "Cube.006_col",
            "scale" : [
                0.5614503026008606,
                0.5614503026008606,
                0.5614503026008606
            ],
            "translation" : [
                54.466129302978516,
                -0.04513859748840332,
                -9.68823528289795
            ]
        },
        {
            "mesh" : 7,
            "name" : "cool window-noimp",
            "scale" : [
                6.153363227844238,
                6.153363227844238,
                6.153363227844238
            ],
            "translation" : [
                -35.99221420288086,
                8.602209091186523,
                21.59130096435547
            ]
        },
        {
            "mesh" : 8,
            "name" : "cool window-noimp.001",
            "rotation" : [
                0,
                0.7071068286895752,
                0,
                0.7071067690849304
            ],
            "scale" : [
                6.153363227844238,
                6.153363227844238,
                6.153363227844238
            ],
            "translation" : [
                -133.9988555908203,
                101.88345336914062,
                4.776144027709961
            ]
        },
        {
            "mesh" : 9,
            "name" : "cool window-noimp.002",
            "rotation" : [
                0.5000000596046448,
                0.5000000596046448,
                -0.5000000596046448,
                0.5
            ],
            "scale" : [
                6.153363227844238,
                6.153363227844238,
                6.153363227844238
            ],
            "translation" : [
                -40.36056137084961,
                88.801025390625,
                4.961360931396484
            ]
        }
    ],
    "scene" : 0,
    "scenes" : [
        {
            "name" : "Scene",
            "nodes" : [
                0,
                1,
                2,
                3,
                4,
                5,
                6,
                7,
                8,
                9
            ]
        }
    ]
}
