{
    "accessors" : [
        {
            "bufferView" : 0,
            "componentType" : 5126,
            "count" : 4,
            "max" : [
                1,
                0,
                1
            ],
            "min" : [
                -1,
                0,
                -1
            ],
            "type" : "VEC3"
        },
        {
            "bufferView" : 1,
            "componentType" : 5126,
            "count" : 4,
            "type" : "VEC3"
        },
        {
            "bufferView" : 2,
            "componentType" : 5126,
            "count" : 4,
            "type" : "VEC2"
        },
        {
            "bufferView" : 3,
            "componentType" : 5123,
            "count" : 6,
            "type" : "SCALAR"
        },
        {
            "bufferView" : 4,
            "componentType" : 5126,
            "count" : 24,
            "max" : [
                1,
                1,
                1
            ],
            "min" : [
                -1,
                -1,
                -1
            ],
            "type" : "VEC3"
        },
        {
            "bufferView" : 5,
            "componentType" : 5126,
            "count" : 24,
            "type" : "VEC3"
        },
        {
            "bufferView" : 6,
            "componentType" : 5126,
            "count" : 24,
            "type" : "VEC2"
        },
        {
            "bufferView" : 7,
            "componentType" : 5123,
            "count" : 36,
            "type" : "SCALAR"
        },
        {
            "bufferView" : 8,
            "componentType" : 5126,
            "count" : 24,
            "max" : [
                1,
                1,
                1
            ],
            "min" : [
                -1,
                -1,
                -1
            ],
            "type" : "VEC3"
        },
        {
            "bufferView" : 9,
            "componentType" : 5126,
            "count" : 24,
            "type" : "VEC3"
        },
        {
            "bufferView" : 10,
            "componentType" : 5126,
            "count" : 24,
            "type" : "VEC2"
        },
        {
            "bufferView" : 11,
            "componentType" : 5123,
            "count" : 36,
            "type" : "SCALAR"
        },
        {
            "bufferView" : 12,
            "componentType" : 5126,
            "count" : 564,
            "max" : [
                1,
                1,
                1
            ],
            "min" : [
                -1,
                -1,
                -1.0000003576278687
            ],
            "type" : "VEC3"
        },
        {
            "bufferView" : 13,
            "componentType" : 5126,
            "count" : 564,
            "type" : "VEC3"
        },
        {
            "bufferView" : 14,
            "componentType" : 5126,
            "count" : 564,
            "type" : "VEC2"
        },
        {
            "bufferView" : 15,
            "componentType" : 5123,
            "count" : 1056,
            "type" : "SCALAR"
        },
        {
            "bufferView" : 16,
            "componentType" : 5126,
            "count" : 100,
            "max" : [
                0.31779152154922485,
                3.388026237487793,
                4.185358047485352
            ],
            "min" : [
                -0.3177908658981323,
                -1.1190162897109985,
                -3.3155925273895264
            ],
            "type" : "VEC3"
        },
        {
            "bufferView" : 17,
            "componentType" : 5126,
            "count" : 100,
            "type" : "VEC3"
        },
        {
            "bufferView" : 18,
            "componentType" : 5126,
            "count" : 100,
            "type" : "VEC2"
        },
        {
            "bufferView" : 19,
            "componentType" : 5123,
            "count" : 180,
            "type" : "SCALAR"
        },
        {
            "bufferView" : 20,
            "componentType" : 5126,
            "count" : 100,
            "max" : [
                0.31779152154922485,
                3.388026237487793,
                4.185358047485352
            ],
            "min" : [
                -0.3177908658981323,
                -1.1190162897109985,
                -3.3155925273895264
            ],
            "type" : "VEC3"
        },
        {
            "bufferView" : 21,
            "componentType" : 5126,
            "count" : 100,
            "type" : "VEC3"
        },
        {
            "bufferView" : 22,
            "componentType" : 5126,
            "count" : 100,
            "type" : "VEC2"
        },
        {
            "bufferView" : 23,
            "componentType" : 5123,
            "count" : 180,
            "type" : "SCALAR"
        },
        {
            "bufferView" : 24,
            "componentType" : 5126,
            "count" : 100,
            "max" : [
                0.31779152154922485,
                3.388026237487793,
                4.185358047485352
            ],
            "min" : [
                -0.3177908658981323,
                -1.1190162897109985,
                -3.3155925273895264
            ],
            "type" : "VEC3"
        },
        {
            "bufferView" : 25,
            "componentType" : 5126,
            "count" : 100,
            "type" : "VEC3"
        },
        {
            "bufferView" : 26,
            "componentType" : 5126,
            "count" : 100,
            "type" : "VEC2"
        },
        {
            "bufferView" : 27,
            "componentType" : 5123,
            "count" : 180,
            "type" : "SCALAR"
        },
        {
            "bufferView" : 28,
            "componentType" : 5126,
            "count" : 168,
            "max" : [
                1,
                1,
                14.199999809265137
            ],
            "min" : [
                -1,
                -1,
                -1
            ],
            "type" : "VEC3"
        },
        {
            "bufferView" : 29,
            "componentType" : 5126,
            "count" : 168,
            "type" : "VEC3"
        },
        {
            "bufferView" : 30,
            "componentType" : 5126,
            "count" : 168,
            "type" : "VEC2"
        },
        {
            "bufferView" : 31,
            "componentType" : 5123,
            "count" : 252,
            "type" : "SCALAR"
        },
        {
            "bufferView" : 32,
            "componentType" : 5126,
            "count" : 168,
            "max" : [
                1,
                1,
                14.199999809265137
            ],
            "min" : [
                -1,
                -1,
                -1
            ],
            "type" : "VEC3"
        },
        {
            "bufferView" : 33,
            "componentType" : 5126,
            "count" : 168,
            "type" : "VEC3"
        },
        {
            "bufferView" : 34,
            "componentType" : 5126,
            "count" : 168,
            "type" : "VEC2"
        },
        {
            "bufferView" : 35,
            "componentType" : 5123,
            "count" : 252,
            "type" : "SCALAR"
        },
        {
            "bufferView" : 36,
            "componentType" : 5126,
            "count" : 168,
            "max" : [
                1,
                1,
                14.199999809265137
            ],
            "min" : [
                -1,
                -1,
                -1
            ],
            "type" : "VEC3"
        },
        {
            "bufferView" : 37,
            "componentType" : 5126,
            "count" : 168,
            "type" : "VEC3"
        },
        {
            "bufferView" : 38,
            "componentType" : 5126,
            "count" : 168,
            "type" : "VEC2"
        },
        {
            "bufferView" : 39,
            "componentType" : 5123,
            "count" : 252,
            "type" : "SCALAR"
        }
    ],
    "asset" : {
        "generator" : "Khronos Blender glTF 2.0 I/O",
        "version" : "2.0"
    },
    "bufferViews" : [
        {
            "buffer" : 0,
            "byteLength" : 48,
            "byteOffset" : 0
        },
        {
            "buffer" : 0,
            "byteLength" : 48,
            "byteOffset" : 48
        },
        {
            "buffer" : 0,
            "byteLength" : 32,
            "byteOffset" : 96
        },
        {
            "buffer" : 0,
            "byteLength" : 12,
            "byteOffset" : 128
        },
        {
            "buffer" : 0,
            "byteLength" : 288,
            "byteOffset" : 140
        },
        {
            "buffer" : 0,
            "byteLength" : 288,
            "byteOffset" : 428
        },
        {
            "buffer" : 0,
            "byteLength" : 192,
            "byteOffset" : 716
        },
        {
            "buffer" : 0,
            "byteLength" : 72,
            "byteOffset" : 908
        },
        {
            "buffer" : 0,
            "byteLength" : 288,
            "byteOffset" : 980
        },
        {
            "buffer" : 0,
            "byteLength" : 288,
            "byteOffset" : 1268
        },
        {
            "buffer" : 0,
            "byteLength" : 192,
            "byteOffset" : 1556
        },
        {
            "buffer" : 0,
            "byteLength" : 72,
            "byteOffset" : 1748
        },
        {
            "buffer" : 0,
            "byteLength" : 6768,
            "byteOffset" : 1820
        },
        {
            "buffer" : 0,
            "byteLength" : 6768,
            "byteOffset" : 8588
        },
        {
            "buffer" : 0,
            "byteLength" : 4512,
            "byteOffset" : 15356
        },
        {
            "buffer" : 0,
            "byteLength" : 2112,
            "byteOffset" : 19868
        },
        {
            "buffer" : 0,
            "byteLength" : 1200,
            "byteOffset" : 21980
        },
        {
            "buffer" : 0,
            "byteLength" : 1200,
            "byteOffset" : 23180
        },
        {
            "buffer" : 0,
            "byteLength" : 800,
            "byteOffset" : 24380
        },
        {
            "buffer" : 0,
            "byteLength" : 360,
            "byteOffset" : 25180
        },
        {
            "buffer" : 0,
            "byteLength" : 1200,
            "byteOffset" : 25540
        },
        {
            "buffer" : 0,
            "byteLength" : 1200,
            "byteOffset" : 26740
        },
        {
            "buffer" : 0,
            "byteLength" : 800,
            "byteOffset" : 27940
        },
        {
            "buffer" : 0,
            "byteLength" : 360,
            "byteOffset" : 28740
        },
        {
            "buffer" : 0,
            "byteLength" : 1200,
            "byteOffset" : 29100
        },
        {
            "buffer" : 0,
            "byteLength" : 1200,
            "byteOffset" : 30300
        },
        {
            "buffer" : 0,
            "byteLength" : 800,
            "byteOffset" : 31500
        },
        {
            "buffer" : 0,
            "byteLength" : 360,
            "byteOffset" : 32300
        },
        {
            "buffer" : 0,
            "byteLength" : 2016,
            "byteOffset" : 32660
        },
        {
            "buffer" : 0,
            "byteLength" : 2016,
            "byteOffset" : 34676
        },
        {
            "buffer" : 0,
            "byteLength" : 1344,
            "byteOffset" : 36692
        },
        {
            "buffer" : 0,
            "byteLength" : 504,
            "byteOffset" : 38036
        },
        {
            "buffer" : 0,
            "byteLength" : 2016,
            "byteOffset" : 38540
        },
        {
            "buffer" : 0,
            "byteLength" : 2016,
            "byteOffset" : 40556
        },
        {
            "buffer" : 0,
            "byteLength" : 1344,
            "byteOffset" : 42572
        },
        {
            "buffer" : 0,
            "byteLength" : 504,
            "byteOffset" : 43916
        },
        {
            "buffer" : 0,
            "byteLength" : 2016,
            "byteOffset" : 44420
        },
        {
            "buffer" : 0,
            "byteLength" : 2016,
            "byteOffset" : 46436
        },
        {
            "buffer" : 0,
            "byteLength" : 1344,
            "byteOffset" : 48452
        },
        {
            "buffer" : 0,
            "byteLength" : 504,
            "byteOffset" : 49796
        }
    ],
    "buffers" : [
        {
            "byteLength" : 50300,
            "uri" : "data:application/octet-stream;base64,"
        }
    ],
    "extensions" : {},
    "meshes" : [
        {
            "name" : "Plane.001",
            "primitives" : [
                {
                    "attributes" : {
                        "NORMAL" : 1,
                        "POSITION" : 0,
                        "TEXCOORD_0" : 2
                    },
                    "indices" : 3
                }
            ]
        },
        {
            "name" : "Cube.012",
            "primitives" : [
                {
                    "attributes" : {
                        "NORMAL" : 5,
                        "POSITION" : 4,
                        "TEXCOORD_0" : 6
                    },
                    "indices" : 7
                }
            ]
        },
        {
            "name" : "Cube.012",
            "primitives" : [
                {
                    "attributes" : {
                        "NORMAL" : 9,
                        "POSITION" : 8,
                        "TEXCOORD_0" : 10
                    },
                    "indices" : 11
                }
            ]
        },
        {
            "name" : "Cube.012",
            "primitives" : [
                {
                    "attributes" : {
                        "NORMAL" : 13,
                        "POSITION" : 12,
                        "TEXCOORD_0" : 14
                    },
                    "indices" : 15
                }
            ]
        },
        {
            "name" : "Cube.012",
            "primitives" : [
                {
                    "attributes" : {
                        "NORMAL" : 17,
                        "POSITION" : 16,
                        "TEXCOORD_0" : 18
                    },
                    "indices" : 19
                }
            ]
        },
        {
            "name" : "Cube.012",
            "primitives" : [
                {
                    "attributes" : {
                        "NORMAL" : 21,
                        "POSITION" : 20,
                        "TEXCOORD_0" : 22
                    },
                    "indices" : 23
                }
            ]
        },
        {
            "name" : "Cube.012",
            "primitives" : [
                {
                    "attributes" : {
                        "NORMAL" : 25,
                        "POSITION" : 24,
                        "TEXCOORD_0" : 26
                    },
                    "indices" : 27
                }
            ]
        },
        {
            "name" : "Cube.012",
            "primitives" : [
                {
                    "attributes" : {
                        "NORMAL" : 29,
                        "POSITION" : 28,
                        "TEXCOORD_0" : 30
                    },
                    "indices" : 31
                }
            ]
        },
        {
            "name" : "Cube.012",
            "primitives" : [
                {
                    "attributes" : {
                        "NORMAL" : 33,
                        "POSITION" : 32,
                        "TEXCOORD_0" : 34
                    },
                    "indices" : 35
                }
            ]
        },
        {
            "name" : "Cube.012",
            "primitives" : [
                {
                    "attributes" : {
                        "NORMAL" : 37,
                        "POSITION" : 36,
                        "TEXCOORD_0" : 38
                    },
                    "indices" : 39
                }
            ]
        }
    ],
    "nodes" : [
        {
            "mesh" : 0,
            "name" : "floor-col",
            "scale" : [
                100,
                100,
                100
            ],
            "translation" : [
                -0.9308552742004395,
                -0.045607566833496094,
                0.03564906492829323
            ]
        },
        {
            "mesh" : 1,
            "name" : "Cube_col",
            "scale" : [
                10,
                10,
                10
            ],
            "translation" : [
                -83.72801208496094,
                -0.045607566833496094,
                -55.97899627685547
            ]
        },
        {
            "mesh" : 2,
            "name" : "Cube.001_col",
            "scale" : [
                10,
                10,
                10
            ],
            "translation" : [
                72.39444732666016,
                -0.045607566833496094,
                -35.07556915283203
            ]
        },
        {
            "mesh" : 3,
            "name" : "house_col",
            "scale" : [
                58.911399841308594,
                58.911399841308594,
                58.911399841308594
            ],
            "translation" : [
                -58.578590393066406,
                -0.045607566833496094,
                41.352577209472656
            ]
        },
        {
            "mesh" : 4,
            "name" : "Cube.002_col",
            "scale" : [
                2.2190535068511963,
                2.2190535068511963,
                2.2190535068511963
            ],
            "translation" : [
                72.39444732666016,
                -0.045607566833496094,
                49.60693359375
            ]
        },
        {
            "mesh" : 5,
            "name" : "Cube.005_col",
            "rotation" : [
                0,
                -0.4750764071941376,
                0,
                0.8799445629119873
            ],
            "scale" : [
                2.2190535068511963,
                2.2190535068511963,
                2.2190535068511963
            ],
            "translation" : [
                52.82931137084961,
                -0.045607566833496094,
                34.02729034423828
            ]
        },
        {
            "mesh" : 6,
            "name" : "Cube.006_col",
            "rotation" : [
                0,
                -0.73958820104599,
                0,
                0.6730596423149109
            ],
            "scale" : [
                2.2190535068511963,
                2.2190535068511963,
                2.2190535068511963
            ],
            "translation" : [
                43.04674530029297,
                -0.045607566833496094,
                -5.827617168426514
            ]
        },
        {
            "mesh" : 7,
            "name" : "cool window-noimp",
            "scale" : [
                6.153363227844238,
                6.153363227844238,
                6.153363227844238
            ],
            "translation" : [
                -0.9308552742004395,
                32.7515754699707,
                0.03564906492829323
            ]
        },
        {
            "mesh" : 8,
            "name" : "cool window-noimp.001",
            "rotation" : [
                0,
                0.7071068286895752,
                0,
                0.7071067690849304
            ],
            "scale" : [
                6.153363227844238,
                6.153363227844238,
                6.153363227844238
            ],
            "translation" : [
                -99.65252685546875,
                32.7515754699707,
                -14.466825485229492
            ]
        },
        {
            "mesh" : 9,
            "name" : "cool window-noimp.002",
            "rotation" : [
                0,
                0.7071068286895752,
                0,
                0.7071067690849304
            ],
            "scale" : [
                6.153363227844238,
                6.153363227844238,
                6.153363227844238
            ],
            "translation" : [
                -99.65252685546875,
                9.983072280883789,
                -14.466825485229492
            ]
        }
    ],
    "scene" : 0,
    "scenes" : [
        {
            "name" : "Scene",
            "nodes" : [
                0,
                1,
                2,
                3,
                4,
                5,
                6,
                7,
                8,
                9
            ]
        }
    ]
}
