{
    "accessors" : [
        {
            "bufferView" : 0,
            "componentType" : 5126,
            "count" : 4,
            "max" : [
                44.39876174926758,
                0,
                44.39876174926758
            ],
            "min" : [
                -44.39876174926758,
                0,
                -44.39876174926758
            ],
            "type" : "VEC3"
        },
        {
            "bufferView" : 1,
            "componentType" : 5126,
            "count" : 4,
            "type" : "VEC3"
        },
        {
            "bufferView" : 2,
            "componentType" : 5126,
            "count" : 4,
            "type" : "VEC2"
        },
        {
            "bufferView" : 3,
            "componentType" : 5123,
            "count" : 6,
            "type" : "SCALAR"
        },
        {
            "bufferView" : 4,
            "componentType" : 5126,
            "count" : 375,
            "max" : [
                4.887106418609619,
                7.100586414337158,
                4.114659786224365
            ],
            "min" : [
                -4.887106418609619,
                -3.412628412246704,
                -4.114663600921631
            ],
            "type" : "VEC3"
        },
        {
            "bufferView" : 5,
            "componentType" : 5126,
            "count" : 375,
            "type" : "VEC3"
        },
        {
            "bufferView" : 6,
            "componentType" : 5126,
            "count" : 375,
            "type" : "VEC2"
        },
        {
            "bufferView" : 7,
            "componentType" : 5123,
            "count" : 573,
            "type" : "SCALAR"
        },
        {
            "bufferView" : 8,
            "componentType" : 5126,
            "count" : 168,
            "max" : [
                1,
                1,
                14.199999809265137
            ],
            "min" : [
                -1,
                -1,
                -1
            ],
            "type" : "VEC3"
        },
        {
            "bufferView" : 9,
            "componentType" : 5126,
            "count" : 168,
            "type" : "VEC3"
        },
        {
            "bufferView" : 10,
            "componentType" : 5126,
            "count" : 168,
            "type" : "VEC2"
        },
        {
            "bufferView" : 11,
            "componentType" : 5123,
            "count" : 252,
            "type" : "SCALAR"
        },
        {
            "bufferView" : 12,
            "componentType" : 5126,
            "count" : 168,
            "max" : [
                1,
                1,
                14.199999809265137
            ],
            "min" : [
                -1,
                -1,
                -1
            ],
            "type" : "VEC3"
        },
        {
            "bufferView" : 13,
            "componentType" : 5126,
            "count" : 168,
            "type" : "VEC3"
        },
        {
            "bufferView" : 14,
            "componentType" : 5126,
            "count" : 168,
            "type" : "VEC2"
        },
        {
            "bufferView" : 15,
            "componentType" : 5123,
            "count" : 252,
            "type" : "SCALAR"
        },
        {
            "bufferView" : 16,
            "componentType" : 5126,
            "count" : 168,
            "max" : [
                1,
                1,
                14.199999809265137
            ],
            "min" : [
                -1,
                -1,
                -1
            ],
            "type" : "VEC3"
        },
        {
            "bufferView" : 17,
            "componentType" : 5126,
            "count" : 168,
            "type" : "VEC3"
        },
        {
            "bufferView" : 18,
            "componentType" : 5126,
            "count" : 168,
            "type" : "VEC2"
        },
        {
            "bufferView" : 19,
            "componentType" : 5123,
            "count" : 252,
            "type" : "SCALAR"
        },
        {
            "bufferView" : 20,
            "componentType" : 5126,
            "count" : 1754,
            "max" : [
                82.00669860839844,
                82.0066909790039,
                82.0066909790039
            ],
            "min" : [
                -82.0066909790039,
                -82.0066909790039,
                -82.00669860839844
            ],
            "type" : "VEC3"
        },
        {
            "bufferView" : 21,
            "componentType" : 5126,
            "count" : 1754,
            "type" : "VEC3"
        },
        {
            "bufferView" : 22,
            "componentType" : 5126,
            "count" : 1754,
            "type" : "VEC2"
        },
        {
            "bufferView" : 23,
            "componentType" : 5123,
            "count" : 3567,
            "type" : "SCALAR"
        },
        {
            "bufferView" : 24,
            "componentType" : 5126,
            "count" : 119,
            "max" : [
                0.5844122767448425,
                3.9290473461151123,
                0.579651415348053
            ],
            "min" : [
                -0.5905622839927673,
                2.69360613822937,
                -0.6557899713516235
            ],
            "type" : "VEC3"
        },
        {
            "bufferView" : 25,
            "componentType" : 5126,
            "count" : 119,
            "type" : "VEC3"
        },
        {
            "bufferView" : 26,
            "componentType" : 5126,
            "count" : 119,
            "type" : "VEC2"
        },
        {
            "bufferView" : 27,
            "componentType" : 5123,
            "count" : 540,
            "type" : "SCALAR"
        },
        {
            "bufferView" : 28,
            "componentType" : 5126,
            "count" : 232,
            "max" : [
                0.23037058115005493,
                2.9553229808807373,
                2.4696717262268066
            ],
            "min" : [
                -0.30150505900382996,
                -1.0464224815368652,
                -1.6780809164047241
            ],
            "type" : "VEC3"
        },
        {
            "bufferView" : 29,
            "componentType" : 5126,
            "count" : 232,
            "type" : "VEC3"
        },
        {
            "bufferView" : 30,
            "componentType" : 5126,
            "count" : 232,
            "type" : "VEC2"
        },
        {
            "bufferView" : 31,
            "componentType" : 5123,
            "count" : 348,
            "type" : "SCALAR"
        },
        {
            "bufferView" : 32,
            "componentType" : 5126,
            "count" : 119,
            "max" : [
                0.5844122767448425,
                3.9290473461151123,
                0.579651415348053
            ],
            "min" : [
                -0.5905622839927673,
                2.69360613822937,
                -0.6557899713516235
            ],
            "type" : "VEC3"
        },
        {
            "bufferView" : 33,
            "componentType" : 5126,
            "count" : 119,
            "type" : "VEC3"
        },
        {
            "bufferView" : 34,
            "componentType" : 5126,
            "count" : 119,
            "type" : "VEC2"
        },
        {
            "bufferView" : 35,
            "componentType" : 5123,
            "count" : 540,
            "type" : "SCALAR"
        },
        {
            "bufferView" : 36,
            "componentType" : 5126,
            "count" : 232,
            "max" : [
                0.23037058115005493,
                2.9553229808807373,
                2.4696717262268066
            ],
            "min" : [
                -0.30150505900382996,
                -1.0464224815368652,
                -1.6780809164047241
            ],
            "type" : "VEC3"
        },
        {
            "bufferView" : 37,
            "componentType" : 5126,
            "count" : 232,
            "type" : "VEC3"
        },
        {
            "bufferView" : 38,
            "componentType" : 5126,
            "count" : 232,
            "type" : "VEC2"
        },
        {
            "bufferView" : 39,
            "componentType" : 5123,
            "count" : 348,
            "type" : "SCALAR"
        },
        {
            "bufferView" : 40,
            "componentType" : 5126,
            "count" : 119,
            "max" : [
                0.5844122767448425,
                3.9290473461151123,
                0.579651415348053
            ],
            "min" : [
                -0.5905622839927673,
                2.69360613822937,
                -0.6557899713516235
            ],
            "type" : "VEC3"
        },
        {
            "bufferView" : 41,
            "componentType" : 5126,
            "count" : 119,
            "type" : "VEC3"
        },
        {
            "bufferView" : 42,
            "componentType" : 5126,
            "count" : 119,
            "type" : "VEC2"
        },
        {
            "bufferView" : 43,
            "componentType" : 5123,
            "count" : 540,
            "type" : "SCALAR"
        },
        {
            "bufferView" : 44,
            "componentType" : 5126,
            "count" : 232,
            "max" : [
                0.23037058115005493,
                2.9553229808807373,
                2.4696717262268066
            ],
            "min" : [
                -0.30150505900382996,
                -1.0464224815368652,
                -1.6780809164047241
            ],
            "type" : "VEC3"
        },
        {
            "bufferView" : 45,
            "componentType" : 5126,
            "count" : 232,
            "type" : "VEC3"
        },
        {
            "bufferView" : 46,
            "componentType" : 5126,
            "count" : 232,
            "type" : "VEC2"
        },
        {
            "bufferView" : 47,
            "componentType" : 5123,
            "count" : 348,
            "type" : "SCALAR"
        }
    ],
    "asset" : {
        "generator" : "Khronos Blender glTF 2.0 I/O",
        "version" : "2.0"
    },
    "bufferViews" : [
        {
            "buffer" : 0,
            "byteLength" : 48,
            "byteOffset" : 0
        },
        {
            "buffer" : 0,
            "byteLength" : 48,
            "byteOffset" : 48
        },
        {
            "buffer" : 0,
            "byteLength" : 32,
            "byteOffset" : 96
        },
        {
            "buffer" : 0,
            "byteLength" : 12,
            "byteOffset" : 128
        },
        {
            "buffer" : 0,
            "byteLength" : 4500,
            "byteOffset" : 140
        },
        {
            "buffer" : 0,
            "byteLength" : 4500,
            "byteOffset" : 4640
        },
        {
            "buffer" : 0,
            "byteLength" : 3000,
            "byteOffset" : 9140
        },
        {
            "buffer" : 0,
            "byteLength" : 1146,
            "byteOffset" : 12140
        },
        {
            "buffer" : 0,
            "byteLength" : 2016,
            "byteOffset" : 13288
        },
        {
            "buffer" : 0,
            "byteLength" : 2016,
            "byteOffset" : 15304
        },
        {
            "buffer" : 0,
            "byteLength" : 1344,
            "byteOffset" : 17320
        },
        {
            "buffer" : 0,
            "byteLength" : 504,
            "byteOffset" : 18664
        },
        {
            "buffer" : 0,
            "byteLength" : 2016,
            "byteOffset" : 19168
        },
        {
            "buffer" : 0,
            "byteLength" : 2016,
            "byteOffset" : 21184
        },
        {
            "buffer" : 0,
            "byteLength" : 1344,
            "byteOffset" : 23200
        },
        {
            "buffer" : 0,
            "byteLength" : 504,
            "byteOffset" : 24544
        },
        {
            "buffer" : 0,
            "byteLength" : 2016,
            "byteOffset" : 25048
        },
        {
            "buffer" : 0,
            "byteLength" : 2016,
            "byteOffset" : 27064
        },
        {
            "buffer" : 0,
            "byteLength" : 1344,
            "byteOffset" : 29080
        },
        {
            "buffer" : 0,
            "byteLength" : 504,
            "byteOffset" : 30424
        },
        {
            "buffer" : 0,
            "byteLength" : 21048,
            "byteOffset" : 30928
        },
        {
            "buffer" : 0,
            "byteLength" : 21048,
            "byteOffset" : 51976
        },
        {
            "buffer" : 0,
            "byteLength" : 14032,
            "byteOffset" : 73024
        },
        {
            "buffer" : 0,
            "byteLength" : 7134,
            "byteOffset" : 87056
        },
        {
            "buffer" : 0,
            "byteLength" : 1428,
            "byteOffset" : 94192
        },
        {
            "buffer" : 0,
            "byteLength" : 1428,
            "byteOffset" : 95620
        },
        {
            "buffer" : 0,
            "byteLength" : 952,
            "byteOffset" : 97048
        },
        {
            "buffer" : 0,
            "byteLength" : 1080,
            "byteOffset" : 98000
        },
        {
            "buffer" : 0,
            "byteLength" : 2784,
            "byteOffset" : 99080
        },
        {
            "buffer" : 0,
            "byteLength" : 2784,
            "byteOffset" : 101864
        },
        {
            "buffer" : 0,
            "byteLength" : 1856,
            "byteOffset" : 104648
        },
        {
            "buffer" : 0,
            "byteLength" : 696,
            "byteOffset" : 106504
        },
        {
            "buffer" : 0,
            "byteLength" : 1428,
            "byteOffset" : 107200
        },
        {
            "buffer" : 0,
            "byteLength" : 1428,
            "byteOffset" : 108628
        },
        {
            "buffer" : 0,
            "byteLength" : 952,
            "byteOffset" : 110056
        },
        {
            "buffer" : 0,
            "byteLength" : 1080,
            "byteOffset" : 111008
        },
        {
            "buffer" : 0,
            "byteLength" : 2784,
            "byteOffset" : 112088
        },
        {
            "buffer" : 0,
            "byteLength" : 2784,
            "byteOffset" : 114872
        },
        {
            "buffer" : 0,
            "byteLength" : 1856,
            "byteOffset" : 117656
        },
        {
            "buffer" : 0,
            "byteLength" : 696,
            "byteOffset" : 119512
        },
        {
            "buffer" : 0,
            "byteLength" : 1428,
            "byteOffset" : 120208
        },
        {
            "buffer" : 0,
            "byteLength" : 1428,
            "byteOffset" : 121636
        },
        {
            "buffer" : 0,
            "byteLength" : 952,
            "byteOffset" : 123064
        },
        {
            "buffer" : 0,
            "byteLength" : 1080,
            "byteOffset" : 124016
        },
        {
            "buffer" : 0,
            "byteLength" : 2784,
            "byteOffset" : 125096
        },
        {
            "buffer" : 0,
            "byteLength" : 2784,
            "byteOffset" : 127880
        },
        {
            "buffer" : 0,
            "byteLength" : 1856,
            "byteOffset" : 130664
        },
        {
            "buffer" : 0,
            "byteLength" : 696,
            "byteOffset" : 132520
        }
    ],
    "buffers" : [
        {
            "byteLength" : 133216,
            "uri" : "data:application/octet-stream;base64,"
        }
    ],
    "extensions" : {},
    "materials" : [
        {
            "name" : "balls",
            "pbrMetallicRoughness" : {
                "baseColorFactor" : [
                    0.2014390528202057,
                    0.31620660424232483,
                    0.8000000715255737,
                    1
                ],
                "metallicFactor" : 0.8299999833106995,
                "roughnessFactor" : 0.3400000035762787
            }
        },
        {
            "name" : "white",
            "pbrMetallicRoughness" : {
                "baseColorFactor" : [
                    0.800000011920929,
                    0.800000011920929,
                    0.800000011920929,
                    1
                ],
                "metallicFactor" : 0,
                "roughnessFactor" : 0.5
            }
        }
    ],
    "meshes" : [
        {
            "name" : "Plane.001",
            "primitives" : [
                {
                    "attributes" : {
                        "NORMAL" : 1,
                        "POSITION" : 0,
                        "TEXCOORD_0" : 2
                    },
                    "indices" : 3
                }
            ]
        },
        {
            "name" : "Cube.000",
            "primitives" : [
                {
                    "attributes" : {
                        "NORMAL" : 5,
                        "POSITION" : 4,
                        "TEXCOORD_0" : 6
                    },
                    "indices" : 7
                }
            ]
        },
        {
            "name" : "Cube.000",
            "primitives" : [
                {
                    "attributes" : {
                        "NORMAL" : 9,
                        "POSITION" : 8,
                        "TEXCOORD_0" : 10
                    },
                    "indices" : 11
                }
            ]
        },
        {
            "name" : "Cube.000",
            "primitives" : [
                {
                    "attributes" : {
                        "NORMAL" : 13,
                        "POSITION" : 12,
                        "TEXCOORD_0" : 14
                    },
                    "indices" : 15
                }
            ]
        },
        {
            "name" : "Cube.000",
            "primitives" : [
                {
                    "attributes" : {
                        "NORMAL" : 17,
                        "POSITION" : 16,
                        "TEXCOORD_0" : 18
                    },
                    "indices" : 19
                }
            ]
        },
        {
            "name" : "Cube.000",
            "primitives" : [
                {
                    "attributes" : {
                        "NORMAL" : 21,
                        "POSITION" : 20,
                        "TEXCOORD_0" : 22
                    },
                    "indices" : 23
                }
            ]
        },
        {
            "name" : "Cube.000",
            "primitives" : [
                {
                    "attributes" : {
                        "NORMAL" : 25,
                        "POSITION" : 24,
                        "TEXCOORD_0" : 26
                    },
                    "indices" : 27,
                    "material" : 0
                },
                {
                    "attributes" : {
                        "NORMAL" : 29,
                        "POSITION" : 28,
                        "TEXCOORD_0" : 30
                    },
                    "indices" : 31,
                    "material" : 1
                }
            ]
        },
        {
            "name" : "Cube.000",
            "primitives" : [
                {
                    "attributes" : {
                        "NORMAL" : 33,
                        "POSITION" : 32,
                        "TEXCOORD_0" : 34
                    },
                    "indices" : 35,
                    "material" : 0
                },
                {
                    "attributes" : {
                        "NORMAL" : 37,
                        "POSITION" : 36,
                        "TEXCOORD_0" : 38
                    },
                    "indices" : 39,
                    "material" : 1
                }
            ]
        },
        {
            "name" : "Cube.000",
            "primitives" : [
                {
                    "attributes" : {
                        "NORMAL" : 41,
                        "POSITION" : 40,
                        "TEXCOORD_0" : 42
                    },
                    "indices" : 43,
                    "material" : 0
                },
                {
                    "attributes" : {
                        "NORMAL" : 45,
                        "POSITION" : 44,
                        "TEXCOORD_0" : 46
                    },
                    "indices" : 47,
                    "material" : 1
                }
            ]
        }
    ],
    "nodes" : [
        {
            "mesh" : 0,
            "name" : "floor-col",
            "translation" : [
                -6.752200126647949,
                -0.4023212194442749,
                -1.5263676643371582
            ]
        },
        {
            "mesh" : 1,
            "name" : "Cube.001_col",
            "translation" : [
                -29.62183380126953,
                2.8615164756774902,
                1.9088211059570312
            ]
        },
        {
            "mesh" : 2,
            "name" : "cool window-noimp",
            "scale" : [
                8.733033180236816,
                8.733033180236816,
                8.733033180236816
            ],
            "translation" : [
                74.70906066894531,
                -62.975921630859375,
                -51.56085205078125
            ]
        },
        {
            "mesh" : 3,
            "name" : "cool window-noimp.001",
            "rotation" : [
                0,
                0.7071068286895752,
                0,
                0.7071067690849304
            ],
            "scale" : [
                8.733033180236816,
                8.733033180236816,
                8.733033180236816
            ],
            "translation" : [
                -64.38495635986328,
                69.41157531738281,
                -75.42544555664062
            ]
        },
        {
            "mesh" : 4,
            "name" : "cool window-noimp.002",
            "rotation" : [
                0.5000000596046448,
                0.5000000596046448,
                -0.5000000596046448,
                0.5
            ],
            "scale" : [
                8.733033180236816,
                8.733033180236816,
                8.733033180236816
            ],
            "translation" : [
                68.50930786132812,
                50.84461212158203,
                -75.16255187988281
            ]
        },
        {
            "children" : [
                2,
                3,
                4
            ],
            "mesh" : 5,
            "name" : "house_col",
            "scale" : [
                0.12246362119913101,
                0.12246362119913101,
                0.12246362119913101
            ],
            "translation" : [
                22.91173553466797,
                9.309417724609375,
                29.776226043701172
            ]
        },
        {
            "mesh" : 6,
            "name" : "Cube.002_col",
            "translation" : [
                -6.1089935302734375,
                0.09735321998596191,
                4.5888824462890625
            ]
        },
        {
            "mesh" : 7,
            "name" : "Cube.005_col",
            "rotation" : [
                0,
                -0.4750764071941376,
                0,
                0.8799445629119873
            ],
            "translation" : [
                -33.344329833984375,
                1.3930892944335938,
                -17.09851837158203
            ]
        },
        {
            "mesh" : 8,
            "name" : "Cube.006_col",
            "translation" : [
                19.974014282226562,
                0.46610188484191895,
                -19.955902099609375
            ]
        }
    ],
    "scene" : 0,
    "scenes" : [
        {
            "name" : "Scene",
            "nodes" : [
                0,
                1,
                5,
                6,
                7,
                8
            ]
        }
    ]
}
